# xmcd
#
# Track frame offsets:
#	150
#	11110
#	25028
#	37316
#	47202
#	59208
#	71493
#	81811
#	90737
#	103470
#	116550
#	127621
#	137647
#	151161
#	161297
#	171722
#	182507
#	197595
#
# Disc length: 2828 seconds
#
# Revision: 1
# Processed by: cddbd v1.5.1PL0 Copyright (c) Steve Scherf et al.
# Submitted via: audiograbber 1.83.01
#
DISCID=f90b0a12
DTITLE=Various Artist - Country Gentlemen
DYEAR=2001
DGENRE=Country
TTITLE0=roger miller - king of the road
TTITLE1=george jones - a good year for the roses
TTITLE2=stonewall jackson - i love you because
TTITLE3=hank locklin - please help me i'm falling
TTITLE4=jack greene - there goes my everything
TTITLE5=johnny paycheck - take this job and shove it
TTITLE6=johnny russell - jambalaya
TTITLE7=faron young - alone with you
TTITLE8=dickey lee - never ending song of love
TTITLE9=jim ed brown - you can have her
TTITLE10=jimmy dean - little black book
TTITLE11=don gibson - lonesome number one
TTITLE12=david houston - almost persuaded
TTITLE13=jack reno - hitchin' a ride
TTITLE14=charlie walker - pick me up on your way down
TTITLE15=justin tubb - take a letter miss gray
TTITLE16=lee greenwood - dixie road
TTITLE17=glen campbell - rhinestone cowboy
EXTD=
EXTT0=
EXTT1=
EXTT2=
EXTT3=
EXTT4=
EXTT5=
EXTT6=
EXTT7=
EXTT8=
EXTT9=
EXTT10=
EXTT11=
EXTT12=
EXTT13=
EXTT14=
EXTT15=
EXTT16=
EXTT17=
PLAYORDER=
